<svg width="73" height="64" viewBox="0 0 73 64" fill="none" xmlns="http://www.w3.org/2000/svg">
<g clip-path="url(#clip0_3164_6676)">
<path d="M20.0771 32.9162C20.0771 29.2245 20.0828 25.5299 20.0686 21.841C20.0686 21.3278 20.4078 21.0086 20.921 21.0086C21.8703 21.0029 22.8253 21 23.7746 21.0086C24.3134 21.0143 24.627 21.3421 24.6213 21.8467C24.607 25.1137 24.6127 28.3863 24.6127 31.6533V31.8329C24.6184 32.1949 24.7781 32.4601 25.1116 32.6026C25.4337 32.7394 25.7359 32.6682 25.9982 32.3888C26.956 31.3625 27.911 30.3334 28.8632 29.3043C29.4476 28.6714 30.0406 28.0471 30.6193 27.4114C30.8388 27.1719 31.0925 27.0579 31.4203 27.0636C32.6148 27.0721 33.815 27.0721 35.0094 27.0636C35.3629 27.0636 35.6423 27.1719 35.7906 27.4997C35.9416 27.839 35.8704 28.1412 35.6167 28.4177C33.8235 30.4018 32.0361 32.3888 30.2458 34.3729C30.1033 34.5326 29.9636 34.6979 29.8524 34.8804C29.6529 35.2025 29.6529 35.5189 29.8382 35.8468C30.0377 36.2003 30.3199 36.4853 30.5993 36.7733C32.7687 39.0026 34.9439 41.2319 37.119 43.4555C37.3813 43.7263 37.4582 44.0228 37.3271 44.3706C37.2017 44.6955 36.9537 44.8438 36.546 44.8438C35.2175 44.8438 33.8862 44.8381 32.5578 44.8438C32.2585 44.8438 32.0275 44.7497 31.8137 44.5216C29.8838 42.4948 27.9395 40.4793 26.001 38.4609C25.7245 38.1701 25.4166 38.096 25.0973 38.23C24.7752 38.3583 24.607 38.632 24.607 39.0282V43.9971C24.607 44.533 24.3362 44.8096 23.8059 44.8124H20.8868C20.3024 44.8124 20.0743 44.5815 20.0743 44.0057L20.0771 32.9162ZM38.1909 29.2016C38.1909 26.7585 38.1994 24.3126 38.1823 21.8695C38.1766 21.3164 38.4988 21 39.0604 21C39.984 21.0057 40.902 21 41.8228 21C42.3616 21 42.6694 21.3022 42.6694 21.8381C42.6751 23.2635 42.6751 24.6917 42.678 26.1171C42.678 26.7329 42.9944 27.0522 43.6045 27.0522H47.4388C47.8436 27.0522 48.1087 27.2717 48.1885 27.6679C48.2284 27.8589 48.2142 28.0499 48.2199 28.2466V30.6099C48.2199 31.2285 47.9434 31.5051 47.3247 31.5051C46.0989 31.5051 44.8731 31.4994 43.6473 31.4994C43.0201 31.4994 42.6979 31.8158 42.6922 32.4344C42.6865 33.6916 42.6666 34.9431 42.6837 36.2003C42.7094 38.116 44.1775 39.8806 46.0847 40.331C46.6463 40.465 47.2164 40.4878 47.7866 40.408C48.2512 40.3424 48.5876 40.5904 48.6418 41.058C48.7587 42.0529 48.8641 43.0507 48.9668 44.0456C49.0067 44.4247 48.7302 44.7725 48.3396 44.8352C47.2877 45.0148 46.2357 44.9521 45.2009 44.7183C41.5063 43.8916 38.7924 40.9382 38.2622 37.1952C38.208 36.8246 38.1909 36.454 38.1909 36.0862V29.2016ZM70.9946 40.8755C70.9946 40.5363 70.7352 40.2997 70.396 40.2826C70.165 40.274 69.937 40.2655 69.7061 40.2455C68.5259 40.1571 67.9186 39.6041 67.7048 38.441C67.5395 37.5544 67.5452 36.6535 67.5395 35.7527C67.5309 33.1671 67.5338 30.5814 67.5338 27.9958C67.5338 27.9188 67.5338 27.8475 67.5281 27.7734C67.4967 27.3544 67.1945 27.055 66.7698 27.055C65.7749 27.0493 64.7771 27.0493 63.7822 27.055C63.3318 27.055 63.0125 27.3772 62.9925 27.8219C62.9868 27.9302 62.9925 28.0414 62.9925 28.1697C62.907 28.1241 62.8414 28.0927 62.7787 28.0613C60.9827 27.1177 59.0784 26.8127 57.0772 27.1462C51.9829 28.0015 48.6617 33.1043 49.9275 38.1103C51.5353 44.4618 59.1497 46.9904 64.244 42.8568C64.3637 42.7599 64.4122 42.7627 64.5063 42.8939C65.0308 43.6436 65.7236 44.1853 66.5845 44.5131C67.5338 44.8751 68.523 44.9236 69.5265 44.8523C69.8828 44.8267 70.2363 44.7754 70.5613 44.6129C70.7922 44.496 70.9804 44.3221 70.9861 44.057C71.006 42.9965 71.0003 41.936 70.9946 40.8755ZM58.5995 40.4165C56.1222 40.408 54.1523 38.3925 54.1609 35.8667C54.1694 33.4778 56.1935 31.4937 58.6223 31.4994C61.1139 31.5051 63.0809 33.5063 63.0752 36.0378C63.0667 38.4239 61.0284 40.4194 58.5995 40.4165ZM8.95061 27.018C4.21835 27.0265 0.107548 30.6812 0.00207018 35.7584C-0.106259 41.0095 4.053 44.7668 8.6969 44.8837C13.6629 45.0091 17.7766 41.0893 17.8621 36.1376C17.9448 31.0974 13.9965 27.075 8.95061 27.018ZM8.91926 40.4165C6.47615 40.4165 4.47207 38.4096 4.46636 35.958C4.46066 33.5034 6.4619 31.4994 8.92781 31.4908C11.388 31.4851 13.3807 33.4835 13.3807 35.9523C13.3807 38.421 11.388 40.4165 8.91926 40.4165Z" fill="#050038"/>
</g>
<defs>
<clipPath id="clip0_3164_6676">
<rect width="73" height="64" fill="white"/>
</clipPath>
</defs>
</svg>
