<svg width="54" height="64" viewBox="0 0 54 64" fill="none" xmlns="http://www.w3.org/2000/svg">
<g clip-path="url(#clip0_3164_6663)">
<path d="M24.1587 36.6874H30.6311V34.5268H29.9204C29.9204 35.3532 29.3159 35.9625 28.3925 35.9625H27.3961V32.737H28.4705V32.0214H24.1587V32.737H25.245V35.9625H24.1587V36.6851V36.6874Z" fill="#050038"/>
<path d="M33.744 36.6898L36.261 36.6922L38.398 32.7392H39.4701V32.0214H36.2469V32.7392H37.1796L35.6211 35.6153L34.0438 32.7392H35.1749V32.0214H30.4995L30.4971 32.7392H31.5691L33.744 36.6898Z" fill="#050038"/>
<path d="M11.2706 32.0214H6.59513L6.59277 32.7392H7.66246L9.83959 36.6898L12.3568 36.6922L14.4938 32.7392H15.5658V32.0214H12.3426V32.7392H13.273L11.7168 35.6153L10.1395 32.7392H11.2706V32.0214Z" fill="#050038"/>
<path d="M16.1922 34.3594C16.1922 35.7338 17.2997 36.827 19.5193 36.827C21.739 36.827 22.8346 35.7338 22.8346 34.3594C22.8346 33.004 21.6729 31.9225 19.5052 31.9225C17.3398 31.9225 16.1899 33.004 16.1899 34.3594H16.1922ZM20.6622 34.3712C20.648 35.2189 20.2962 36.1021 19.4839 36.0879C18.6929 36.0737 18.3457 35.2001 18.36 34.3311C18.3765 33.4315 18.8062 32.6474 19.5477 32.6593C20.2891 32.6734 20.6787 33.4716 20.6646 34.3712H20.6622Z" fill="#050038"/>
<path d="M40.0884 34.3594C40.0884 35.7338 41.1959 36.827 43.4155 36.827C45.6352 36.827 46.7308 35.7338 46.7308 34.3594C46.7308 33.004 45.569 31.9225 43.4037 31.9225C41.2384 31.9225 40.0884 33.004 40.0884 34.3594ZM43.4438 32.6593C44.1829 32.6734 44.5749 33.4716 44.5583 34.3712C44.5418 35.2189 44.1924 36.1021 43.3801 36.0879C42.5891 36.0737 42.2419 35.2001 42.256 34.3311C42.2726 33.4315 42.7024 32.6474 43.4438 32.6593Z" fill="#050038"/>
<path d="M48.6055 19.5161L45.897 22.2245C48.2182 25.8067 49.5689 30.0783 49.5689 34.6664C49.5689 47.3159 39.3136 57.5712 26.6641 57.5712C14.0145 57.5712 3.75923 47.3159 3.75923 34.6664C3.75923 22.0168 14.0145 11.7616 26.6641 11.7616C31.2616 11.7616 35.5427 13.1169 39.1319 15.45L41.8403 12.7415C37.5333 9.75442 32.3028 8.00232 26.6641 8.00232C11.9388 8.00232 0 19.9388 0 34.6664C0 49.3916 11.9365 61.3304 26.6641 61.3304C41.3893 61.3304 53.3281 49.394 53.3281 34.6664C53.3281 29.0393 51.5831 23.8185 48.6078 19.5161H48.6055Z" fill="#050038"/>
<path d="M40.0742 9.05237V9.80091C41.6916 10.677 43.2123 11.7112 44.622 12.873L40.8226 16.6723C42.256 17.7963 43.55 19.0903 44.6764 20.5212L48.471 16.7267C49.6351 18.1387 50.6694 19.6617 51.5455 21.2557H52.2751V9.05237H40.0718H40.0742Z" fill="#050038"/>
</g>
<defs>
<clipPath id="clip0_3164_6663">
<rect width="53.3281" height="63.9938" fill="white" transform="translate(0 0.00311279)"/>
</clipPath>
</defs>
</svg>
