<svg width="118" height="64" viewBox="0 0 118 64" fill="none" xmlns="http://www.w3.org/2000/svg">
<g clip-path="url(#clip0_3164_6643)">
<path d="M67.7274 34.9477C67.7274 32.1826 66.5439 29.7397 62.5408 29.7397C60.4871 29.7397 58.8557 30.325 57.971 30.8374L58.6194 33.0557C59.4338 32.5448 60.7333 32.124 61.9598 32.124C63.9864 32.1212 64.3184 33.2675 64.3184 34.0046V34.182C59.8946 34.1748 57.0981 35.7034 57.0981 38.8162C57.0981 40.7183 58.5178 42.5015 60.9994 42.5015C62.5136 42.5015 63.793 41.8903 64.5574 40.9257H64.6318C64.6318 40.9257 65.1357 43.0339 67.9221 42.2281C67.7803 41.345 67.7274 40.4148 67.7274 39.2842V34.9477ZM64.4272 37.8673C64.4272 38.0906 64.4086 38.3225 64.3428 38.5214C64.088 39.373 63.2092 40.0856 62.1158 40.0856C61.1928 40.0856 60.4685 39.5632 60.4685 38.4684C60.4685 36.7939 62.3175 36.3331 64.4272 36.3446" fill="#050038"/>
<path d="M0 25.9781C0 25.9781 2.88953 37.7996 3.34894 39.7146C3.88992 41.9529 4.85884 42.7802 7.65537 42.2292L9.4615 34.8987C9.91805 33.0825 10.2286 31.7802 10.5234 29.9296H10.5735C10.7782 31.7987 11.073 33.0825 11.4465 34.9044C11.4465 34.9044 12.1836 38.2348 12.5657 39.9794C12.9378 41.724 13.9854 42.8246 16.729 42.2292L21.0283 25.9781H17.5576L16.0821 33.0081C15.6914 35.0447 15.3365 36.649 15.0603 38.5153H15.0101C14.7612 36.669 14.4448 35.1305 14.0384 33.1354L12.5099 25.9781H8.88904L7.25748 32.9522C6.79233 35.0819 6.35728 36.7893 6.0839 38.5968H6.03669C5.75476 36.9009 5.37264 34.7412 4.96758 32.6919C4.96758 32.6919 3.99868 27.6985 3.65665 25.9781" fill="#050038"/>
<path d="M30.6996 34.9477C30.6996 32.1826 29.5131 29.7397 25.5101 29.7397C23.462 29.7397 21.8277 30.325 20.9432 30.8374L21.5914 33.0557C22.403 32.5448 23.7011 32.124 24.9318 32.124C26.9584 32.1212 27.2904 33.2675 27.2904 34.0046V34.182C22.8667 34.1748 20.0674 35.7034 20.0674 38.8162C20.0674 40.7183 21.4928 42.5015 23.9629 42.5015C25.4914 42.5015 26.7595 41.8903 27.5237 40.9257H27.601C27.601 40.9257 28.1077 43.0339 30.8913 42.2281C30.7482 41.345 30.6996 40.4148 30.6996 39.2842V34.9477ZM27.3964 37.8673C27.3964 38.0906 27.3779 38.3225 27.3148 38.5214C27.0571 39.373 26.1784 40.0856 25.0822 40.0856C24.1648 40.0856 23.4378 39.5632 23.4378 38.4684C23.4378 36.7939 25.2868 36.3331 27.3964 36.3446" fill="#050038"/>
<path d="M32.501 25.9781V42.2234H35.8042V38.7786V25.9781H32.501Z" fill="#050038"/>
<path d="M77.8652 25.9781V37.9643C77.8652 39.6187 78.1758 40.7723 78.844 41.4792C79.4309 42.0989 80.3911 42.5025 81.5347 42.5025C82.5165 42.5025 83.4767 42.3136 83.9304 42.149L83.8904 39.5686C83.5512 39.6473 83.1634 39.7146 82.6309 39.7146C81.5032 39.7146 81.1311 39.0004 81.1311 37.5148V32.9265H84.0078V29.8222H81.1311V25.9781" fill="#050038"/>
<path d="M69.3281 30.0214V42.2279H72.7429V35.9764C72.7429 35.6402 72.7642 35.3495 72.8173 35.0805C73.072 33.7624 74.0724 32.928 75.5136 32.928C75.9158 32.928 76.1892 32.9724 76.4926 33.0196V29.8195C76.2378 29.7738 76.0646 29.7494 75.7512 29.7494C74.4731 29.7494 73.0248 30.5608 72.4137 32.3283H72.3293V30.0214" fill="#050038"/>
<path d="M37.7227 30.0214V42.2279H41.0501V35.0634C41.0501 34.727 41.0873 34.3836 41.2061 34.0729C41.4766 33.3474 42.1478 32.5073 43.2255 32.5073C44.565 32.5073 45.1977 33.6379 45.1977 35.2694V42.2279H48.5166V34.9776C48.5166 34.6612 48.561 34.2733 48.6539 33.9928C48.9202 33.1699 49.6472 32.5073 50.6519 32.5073C52.0058 32.5073 52.6613 33.6136 52.6613 35.5371V42.2279H55.9772V35.0305C55.9772 31.2493 54.0538 29.7494 51.8698 29.7494C50.9095 29.7494 50.1453 29.9855 49.4583 30.4092C48.8772 30.7655 48.3678 31.2679 47.9111 31.9248H47.8611C47.3358 30.611 46.1022 29.7494 44.4906 29.7494C42.424 29.7494 41.4852 30.7927 40.9328 31.6744H40.8826V30.0214" fill="#050038"/>
<path d="M101.879 29.4738C102.532 29.4738 103.081 29.1332 103.153 28.6952L103.8 21.3675C103.8 20.6419 102.945 20.048 101.879 20.048C100.807 20.048 99.9585 20.6419 99.9585 21.3675L100.611 28.6952C100.68 29.1332 101.226 29.4738 101.879 29.4738Z" fill="#050038"/>
<path d="M97.9096 31.7669C98.233 31.1944 98.2143 30.559 97.8653 30.2755L91.8256 26.0523C91.1973 25.6859 90.2571 26.1224 89.719 27.0469C89.1822 27.97 89.291 29.0061 89.9065 29.3653L96.5928 32.4653C97.0208 32.6256 97.5804 32.3279 97.9096 31.7612" fill="#050038"/>
<path d="M105.847 31.7609C106.189 32.3277 106.748 32.6254 107.165 32.4737L113.851 29.3651C114.473 28.9988 114.566 27.9725 114.04 27.0495C113.504 26.1249 112.558 25.6913 111.931 26.0505L105.89 30.2696C105.555 30.5574 105.531 31.1956 105.854 31.7666" fill="#050038"/>
<path d="M101.879 38.6266C102.532 38.6266 103.081 38.9673 103.153 39.4053L103.8 46.7328C103.8 47.4585 102.945 48.0466 101.879 48.0466C100.807 48.0466 99.9585 47.4585 99.9585 46.7328L100.611 39.4053C100.68 38.9673 101.226 38.6266 101.879 38.6266Z" fill="#050038"/>
<path d="M105.847 36.341C106.189 35.7728 106.748 35.4693 107.165 35.634L113.851 38.7368C114.473 39.0959 114.566 40.1307 114.04 41.0552C113.504 41.9726 112.558 42.4091 111.931 42.05L105.89 37.8251C105.555 37.5403 105.531 36.9048 105.854 36.341" fill="#050038"/>
<path d="M97.9096 36.3348C98.233 36.9059 98.2143 37.5398 97.8653 37.8261L91.8256 42.0438C91.1973 42.4102 90.2571 41.9722 89.719 41.0549C89.1822 40.1317 89.291 39.0955 89.9065 38.7363L96.5928 35.6335C97.0208 35.4703 97.5804 35.7709 97.9096 36.3348Z" fill="#050038"/>
<path d="M115.808 41.4064H115.891C116.004 41.4064 116.05 41.4421 116.063 41.5324C116.087 41.6325 116.1 41.6998 116.124 41.7284H116.339C116.32 41.7069 116.296 41.6525 116.283 41.5266C116.259 41.4178 116.203 41.3562 116.124 41.3348V41.3148C116.233 41.2905 116.296 41.2174 116.296 41.1273C116.296 41.0457 116.259 40.9871 116.221 40.9499C116.15 40.9155 116.081 40.8883 115.93 40.8883C115.795 40.8883 115.696 40.8997 115.618 40.9184V41.7284H115.808V41.4064ZM115.814 41.0372L115.911 41.0243C116.025 41.0243 116.087 41.0772 116.087 41.1516C116.087 41.2346 116.004 41.2733 115.898 41.2733H115.814V41.0372ZM115.935 40.4876C115.466 40.4876 115.094 40.854 115.094 41.3033C115.094 41.7642 115.466 42.1306 115.935 42.1306C116.41 42.1306 116.771 41.7642 116.771 41.3033C116.771 40.854 116.41 40.4876 115.935 40.4876ZM115.935 40.6521C116.296 40.6521 116.564 40.9441 116.564 41.3033C116.564 41.6654 116.296 41.9659 115.935 41.9602C115.575 41.9602 115.301 41.6654 115.301 41.3033C115.301 40.9441 115.575 40.6521 115.93 40.6521" fill="#050038"/>
</g>
<defs>
<clipPath id="clip0_3164_6643">
<rect width="117.328" height="63.9972" fill="white" transform="translate(0 0.00140381)"/>
</clipPath>
</defs>
</svg>
