<svg width="360" height="153" viewBox="0 0 360 153" fill="none" xmlns="http://www.w3.org/2000/svg">
<path d="M190.494 113.289V105.163H180.32L180.448 95.1807H172.002L171.81 105.163H162.148L162.276 95.1807H153.766L153.638 105.163H143.08V113.289H153.51L153.382 121.927H143.08V130.054H153.254L153.126 139.972H161.636L161.764 130.054H171.49L171.362 139.972H179.809L179.937 130.054H190.494V121.927H180.065L180.193 113.289H190.494ZM171.618 121.927H161.892L162.02 113.289H171.746L171.618 121.927ZM207.103 139.972H217.277V95.1807H207.359L207.231 96.7803C206.975 100.492 205.247 102.219 201.472 102.411L196.161 102.667V110.857H207.103V139.972Z" fill="#050038"/>
</svg>
