<svg width="360" height="153" viewBox="0 0 360 153" fill="none" xmlns="http://www.w3.org/2000/svg">
<path d="M104.624 139.971H114.798V95.1804H104.88L104.752 96.7801C104.496 100.491 102.768 102.219 98.993 102.411L93.6821 102.667V110.857H104.624V139.971ZM146.18 140.611C160.13 140.611 170.559 130.757 170.559 117.576C170.559 104.459 160.13 94.5405 146.18 94.5405C132.231 94.5405 121.801 104.459 121.801 117.576C121.801 130.757 132.231 140.611 146.18 140.611ZM146.18 131.077C138.438 131.077 132.999 125.51 132.999 117.576C132.999 109.705 138.438 104.139 146.18 104.139C153.923 104.139 159.362 109.705 159.362 117.576C159.362 125.51 153.923 131.077 146.18 131.077ZM200.232 140.611C214.182 140.611 224.611 130.757 224.611 117.576C224.611 104.459 214.182 94.5405 200.232 94.5405C186.283 94.5405 175.853 104.459 175.853 117.576C175.853 130.757 186.283 140.611 200.232 140.611ZM200.232 131.077C192.49 131.077 187.051 125.51 187.051 117.576C187.051 109.705 192.49 104.139 200.232 104.139C207.975 104.139 213.414 109.705 213.414 117.576C213.414 125.51 207.975 131.077 200.232 131.077ZM265.424 113.801H253.139V101.643H244.372V113.801H232.151V122.695H244.372V134.852H253.139V122.695H265.424V113.801Z" fill="#050038"/>
</svg>
