<svg width="360" height="154" viewBox="0 0 360 154" fill="none" xmlns="http://www.w3.org/2000/svg">
<path d="M77.6293 140.439H87.8032V95.6482H77.8852L77.7573 97.2478C77.5013 100.959 75.7737 102.687 71.9984 102.879L66.6875 103.135V111.325H77.6293V140.439ZM104.509 128.218C100.094 128.218 97.0863 130.969 97.0863 134.68C97.0863 137.944 99.5818 140.567 103.293 140.567C104.765 140.567 106.108 140.119 107.004 139.352C106.172 142.807 102.973 144.406 97.8542 143.767V148.118C107.004 149.269 112.443 144.918 112.443 137.176C112.443 131.417 109.244 128.218 104.509 128.218ZM141.244 141.079C155.194 141.079 165.623 131.225 165.623 118.044C165.623 104.926 155.194 95.0083 141.244 95.0083C127.295 95.0083 116.865 104.926 116.865 118.044C116.865 131.225 127.295 141.079 141.244 141.079ZM141.244 131.545C133.502 131.545 128.063 125.978 128.063 118.044C128.063 110.173 133.502 104.607 141.244 104.607C148.987 104.607 154.426 110.173 154.426 118.044C154.426 125.978 148.987 131.545 141.244 131.545ZM195.295 141.079C209.245 141.079 219.674 131.225 219.674 118.044C219.674 104.926 209.245 95.0083 195.295 95.0083C181.346 95.0083 170.916 104.926 170.916 118.044C170.916 131.225 181.346 141.079 195.295 141.079ZM195.295 131.545C187.553 131.545 182.114 125.978 182.114 118.044C182.114 110.173 187.553 104.607 195.295 104.607C203.038 104.607 208.477 110.173 208.477 118.044C208.477 125.978 203.038 131.545 195.295 131.545ZM249.347 141.079C263.297 141.079 273.726 131.225 273.726 118.044C273.726 104.926 263.297 95.0083 249.347 95.0083C235.398 95.0083 224.968 104.926 224.968 118.044C224.968 131.225 235.398 141.079 249.347 141.079ZM249.347 131.545C241.605 131.545 236.166 125.978 236.166 118.044C236.166 110.173 241.605 104.607 249.347 104.607C257.09 104.607 262.529 110.173 262.529 118.044C262.529 125.978 257.09 131.545 249.347 131.545ZM314.539 114.269H302.254V102.111H293.487V114.269H281.266V123.163H293.487V135.32H302.254V123.163H314.539V114.269Z" fill="#050038"/>
</svg>
