<svg width="360" height="154" viewBox="0 0 360 154" fill="none" xmlns="http://www.w3.org/2000/svg">
<path d="M130.936 112.329H118.971V98.38H108.541V112.329H100.031V95.1807H89.6011V120.52H108.349V139.972H118.971V120.52H130.936V112.329ZM155.762 108.874C151.731 108.874 148.404 110.026 145.844 112.137L146.228 104.139H168.88V95.1807H137.782L137.078 120.2H147.316C148.788 118.344 150.899 117.448 153.459 117.448C157.874 117.448 160.945 120.136 160.945 124.487C160.945 128.71 158.002 131.589 153.459 131.589C148.916 131.589 145.844 128.774 145.652 124.039H134.711C134.583 134.021 142.197 140.611 153.267 140.611C164.401 140.611 171.887 133.957 171.887 124.231C171.887 114.953 165.168 108.874 155.762 108.874ZM179.733 139.972H189.907V105.93L190.291 105.866L199.633 136.132H208.912L218.318 105.866L218.702 105.93V139.972H228.876V95.1807H212.751L204.432 125.127H204.177L195.858 95.1807H179.733V139.972ZM270.954 113.801H258.668V101.643H249.902V113.801H237.681V122.695H249.902V134.853H258.668V122.695H270.954V113.801Z" fill="#050038"/>
</svg>
