<svg width="360" height="153" viewBox="0 0 360 153" fill="none" xmlns="http://www.w3.org/2000/svg">
<path d="M125.748 94.5405C114.55 94.5405 106.936 101.515 106.936 111.305C106.936 120.519 113.718 126.982 122.868 126.982C124.212 126.982 125.364 126.79 126.452 126.47L114.102 139.971H126.26L137.137 127.174C139.889 123.911 144.624 118.408 144.624 110.985C144.624 101.387 136.945 94.5405 125.748 94.5405ZM125.812 119.175C121.205 119.175 118.005 116.04 118.005 111.433C118.005 106.826 121.269 103.691 125.812 103.691C130.483 103.691 133.618 106.89 133.618 111.433C133.618 115.976 130.483 119.175 125.812 119.175ZM168.489 94.5405C157.291 94.5405 149.677 101.515 149.677 111.305C149.677 120.519 156.459 126.982 165.61 126.982C166.953 126.982 168.105 126.79 169.193 126.47L156.843 139.971H169.001L179.879 127.174C182.63 123.911 187.365 118.408 187.365 110.985C187.365 101.387 179.687 94.5405 168.489 94.5405ZM168.553 119.175C163.946 119.175 160.747 116.04 160.747 111.433C160.747 106.826 164.01 103.691 168.553 103.691C173.224 103.691 176.359 106.89 176.359 111.433C176.359 115.976 173.224 119.175 168.553 119.175ZM205.739 118.664C212.906 118.664 218.281 113.481 218.281 106.634C218.281 99.7235 212.906 94.5405 205.739 94.5405C198.573 94.5405 193.262 99.7235 193.262 106.634C193.262 113.481 198.573 118.664 205.739 118.664ZM201.26 139.971H211.626L244.515 95.1804H234.086L201.26 139.971ZM205.739 110.985C203.308 110.985 201.58 109.194 201.58 106.634C201.58 104.011 203.308 102.219 205.739 102.219C208.235 102.219 209.963 104.011 209.963 106.634C209.963 109.194 208.235 110.985 205.739 110.985ZM239.972 140.611C247.139 140.611 252.514 135.492 252.514 128.582C252.514 121.735 247.139 116.552 239.972 116.552C232.87 116.552 227.495 121.735 227.495 128.582C227.495 135.492 232.87 140.611 239.972 140.611ZM239.972 132.997C237.541 132.997 235.813 131.141 235.813 128.582C235.813 126.022 237.541 124.166 239.972 124.166C242.468 124.166 244.195 126.022 244.195 128.582C244.195 131.141 242.468 132.997 239.972 132.997Z" fill="#050038"/>
</svg>
