<svg width="360" height="153" viewBox="0 0 360 153" fill="none" xmlns="http://www.w3.org/2000/svg">
<path d="M124.276 139.971H134.898V95.1804H124.276V139.971ZM163.614 140.611C175.835 140.611 183.322 134.468 183.322 125.126C183.322 117.448 178.459 113.033 169.309 111.881L160.99 110.793C158.751 110.473 155.999 109.705 155.999 106.89C155.999 104.267 158.303 102.603 161.63 102.603C165.341 102.603 167.645 104.267 168.413 107.594L179.739 107.53C179.099 99.5315 172.252 94.5405 162.014 94.5405C151.584 94.5405 145.314 99.7875 145.314 108.042C145.314 114.888 149.537 118.856 157.919 119.943L167.069 121.095C169.565 121.479 172.188 122.375 172.188 125.766C172.188 129.541 168.989 131.781 163.806 131.781C157.407 131.781 153.568 128.39 153.184 122.311H141.154C141.602 132.805 149.793 140.611 163.614 140.611ZM211.917 140.611C225.866 140.611 236.296 130.757 236.296 117.576C236.296 104.459 225.866 94.5405 211.917 94.5405C197.968 94.5405 187.538 104.459 187.538 117.576C187.538 130.757 197.968 140.611 211.917 140.611ZM211.917 131.077C204.175 131.077 198.736 125.51 198.736 117.576C198.736 109.705 204.175 104.139 211.917 104.139C219.659 104.139 225.098 109.705 225.098 117.576C225.098 125.51 219.659 131.077 211.917 131.077Z" fill="#050038"/>
</svg>
