<svg width="350" height="60" viewBox="0 0 350 60" fill="none" xmlns="http://www.w3.org/2000/svg">
<rect width="350" height="60" rx="8" fill="#F5F5F7"/>
<g clip-path="url(#clip0_3164_6601)">
<path d="M17.3738 28.4733L17.3739 28.4732L17.3677 28.4687C17.3222 28.4349 17.3034 28.4034 17.2946 28.3509C17.2829 28.2814 17.2876 28.1521 17.3618 27.9396H17.3618L17.3628 27.9368L18.8685 23.5408L18.99 23.1862L18.6837 22.9702L14.8365 20.2562L14.8365 20.2562L14.8339 20.2544C14.6435 20.1218 14.5558 20.0175 14.5205 19.9512C14.4956 19.9042 14.4954 19.8787 14.5092 19.839L14.5101 19.8362C14.523 19.7983 14.5422 19.7705 14.5993 19.742C14.6711 19.7062 14.807 19.6705 15.039 19.6735L15.0424 19.6735L19.7614 19.7018L20.1271 19.704L20.2399 19.3561L21.6732 14.9402C21.7464 14.7193 21.8219 14.6057 21.8763 14.5519C21.9173 14.5114 21.9486 14.5 21.9978 14.5C22.0532 14.5 22.0863 14.5133 22.1268 14.5531C22.1811 14.6064 22.2564 14.7192 22.3296 14.9402C22.3297 14.9406 22.3298 14.941 22.33 14.9415L23.7629 19.3561L23.8757 19.704L24.2414 19.7018L28.9604 19.6735L28.9638 19.6734C29.1958 19.6705 29.3317 19.7062 29.4035 19.742C29.4592 19.7698 29.4788 19.7969 29.4916 19.8333C29.5052 19.8764 29.5033 19.9061 29.4785 19.9531C29.4438 20.0192 29.3577 20.1229 29.1689 20.2544L29.1688 20.2544L29.1663 20.2562L25.3191 22.9702L25.0128 23.1862L25.1343 23.5408L26.64 27.9368L26.641 27.9396C26.7152 28.1521 26.7199 28.2814 26.7082 28.3509C26.6994 28.4034 26.6806 28.4349 26.6351 28.4687L26.6336 28.4698C26.5971 28.4971 26.5688 28.506 26.5108 28.4964C26.4313 28.4831 26.3002 28.4314 26.1072 28.2941C26.1069 28.2938 26.1066 28.2936 26.1062 28.2934L22.29 25.5456L21.9975 25.335L21.7053 25.5459L17.8966 28.2934C17.8962 28.2936 17.8958 28.2939 17.8954 28.2942C17.7037 28.4305 17.5708 28.4828 17.4897 28.4963C17.4287 28.5064 17.4033 28.4958 17.3738 28.4733Z" fill="#FF9D48" stroke="#FF9D48"/>
</g>
<g clip-path="url(#clip1_3164_6601)">
<path d="M39.3738 28.4733L39.3739 28.4732L39.3677 28.4687C39.3222 28.4349 39.3034 28.4034 39.2946 28.3509C39.2829 28.2814 39.2876 28.1521 39.3618 27.9396H39.3618L39.3628 27.9368L40.8685 23.5408L40.99 23.1862L40.6837 22.9702L36.8365 20.2562L36.8365 20.2562L36.8339 20.2544C36.6435 20.1218 36.5558 20.0175 36.5205 19.9512C36.4956 19.9042 36.4954 19.8787 36.5092 19.839L36.5101 19.8362C36.523 19.7983 36.5422 19.7705 36.5993 19.742C36.6711 19.7062 36.807 19.6705 37.039 19.6735L37.0424 19.6735L41.7614 19.7018L42.1271 19.704L42.2399 19.3561L43.6732 14.9402C43.7464 14.7193 43.8219 14.6057 43.8763 14.5519C43.9173 14.5114 43.9486 14.5 43.9978 14.5C44.0532 14.5 44.0863 14.5133 44.1268 14.5531C44.1811 14.6064 44.2564 14.7192 44.3296 14.9402C44.3297 14.9406 44.3298 14.941 44.33 14.9415L45.7629 19.3561L45.8757 19.704L46.2414 19.7018L50.9604 19.6735L50.9638 19.6734C51.1958 19.6705 51.3317 19.7062 51.4035 19.742C51.4592 19.7698 51.4788 19.7969 51.4916 19.8333C51.5052 19.8764 51.5033 19.9061 51.4785 19.9531C51.4438 20.0192 51.3577 20.1229 51.1689 20.2544L51.1688 20.2544L51.1663 20.2562L47.3191 22.9702L47.0128 23.1862L47.1343 23.5408L48.64 27.9368L48.641 27.9396C48.7152 28.1521 48.7199 28.2814 48.7082 28.3509C48.6994 28.4034 48.6806 28.4349 48.6351 28.4687L48.6336 28.4698C48.5971 28.4971 48.5688 28.506 48.5108 28.4964C48.4313 28.4831 48.3002 28.4314 48.1072 28.2941C48.1069 28.2938 48.1066 28.2936 48.1062 28.2934L44.29 25.5456L43.9975 25.335L43.7053 25.5459L39.8966 28.2934C39.8962 28.2936 39.8958 28.2939 39.8954 28.2942C39.7037 28.4305 39.5708 28.4828 39.4897 28.4963C39.4287 28.5064 39.4033 28.4958 39.3738 28.4733Z" fill="#FF9D48" stroke="#FF9D48"/>
</g>
<g clip-path="url(#clip2_3164_6601)">
<path d="M61.3738 28.4733L61.3739 28.4732L61.3677 28.4687C61.3222 28.4349 61.3034 28.4034 61.2946 28.3509C61.2829 28.2814 61.2876 28.1521 61.3618 27.9396H61.3618L61.3628 27.9368L62.8685 23.5408L62.99 23.1862L62.6837 22.9702L58.8365 20.2562L58.8365 20.2562L58.8339 20.2544C58.6435 20.1218 58.5558 20.0175 58.5205 19.9512C58.4956 19.9042 58.4954 19.8787 58.5092 19.839L58.5101 19.8362C58.523 19.7983 58.5422 19.7705 58.5993 19.742C58.6711 19.7062 58.807 19.6705 59.039 19.6735L59.0424 19.6735L63.7614 19.7018L64.1271 19.704L64.2399 19.3561L65.6732 14.9402C65.7464 14.7193 65.8219 14.6057 65.8763 14.5519C65.9173 14.5114 65.9486 14.5 65.9978 14.5C66.0532 14.5 66.0863 14.5133 66.1268 14.5531C66.1811 14.6064 66.2564 14.7192 66.3296 14.9402C66.3297 14.9406 66.3298 14.941 66.33 14.9415L67.7629 19.3561L67.8757 19.704L68.2414 19.7018L72.9604 19.6735L72.9638 19.6734C73.1958 19.6705 73.3317 19.7062 73.4035 19.742C73.4592 19.7698 73.4788 19.7969 73.4916 19.8333C73.5052 19.8764 73.5033 19.9061 73.4785 19.9531C73.4438 20.0192 73.3577 20.1229 73.1689 20.2544L73.1688 20.2544L73.1663 20.2562L69.3191 22.9702L69.0128 23.1862L69.1343 23.5408L70.64 27.9368L70.641 27.9396C70.7152 28.1521 70.7199 28.2814 70.7082 28.3509C70.6994 28.4034 70.6806 28.4349 70.6351 28.4687L70.6336 28.4698C70.5971 28.4971 70.5688 28.506 70.5108 28.4964C70.4313 28.4831 70.3002 28.4314 70.1072 28.2941C70.1069 28.2938 70.1066 28.2936 70.1062 28.2934L66.29 25.5456L65.9975 25.335L65.7053 25.5459L61.8966 28.2934C61.8962 28.2936 61.8958 28.2939 61.8954 28.2942C61.7037 28.4305 61.5708 28.4828 61.4897 28.4963C61.4287 28.5064 61.4033 28.4958 61.3738 28.4733Z" fill="#FF9D48" stroke="#FF9D48"/>
</g>
<g clip-path="url(#clip3_3164_6601)">
<path d="M83.3738 28.4733L83.3739 28.4732L83.3677 28.4687C83.3222 28.4349 83.3034 28.4034 83.2946 28.3509C83.2829 28.2814 83.2876 28.1521 83.3618 27.9396H83.3618L83.3628 27.9368L84.8685 23.5408L84.99 23.1862L84.6837 22.9702L80.8365 20.2562L80.8365 20.2562L80.8339 20.2544C80.6435 20.1218 80.5558 20.0175 80.5205 19.9512C80.4956 19.9042 80.4954 19.8787 80.5092 19.839L80.5101 19.8362C80.523 19.7983 80.5422 19.7705 80.5993 19.742C80.6711 19.7062 80.807 19.6705 81.039 19.6735L81.0424 19.6735L85.7614 19.7018L86.1271 19.704L86.2399 19.3561L87.6732 14.9402C87.7464 14.7193 87.8219 14.6057 87.8763 14.5519C87.9173 14.5114 87.9486 14.5 87.9978 14.5C88.0532 14.5 88.0863 14.5133 88.1268 14.5531C88.1811 14.6064 88.2564 14.7192 88.3296 14.9402C88.3297 14.9406 88.3298 14.941 88.33 14.9415L89.7629 19.3561L89.8757 19.704L90.2414 19.7018L94.9604 19.6735L94.9638 19.6734C95.1958 19.6705 95.3317 19.7062 95.4035 19.742C95.4592 19.7698 95.4788 19.7969 95.4916 19.8333C95.5052 19.8764 95.5033 19.9061 95.4785 19.9531C95.4438 20.0192 95.3577 20.1229 95.1689 20.2544L95.1688 20.2544L95.1663 20.2562L91.3191 22.9702L91.0128 23.1862L91.1343 23.5408L92.64 27.9368L92.641 27.9396C92.7152 28.1521 92.7199 28.2814 92.7082 28.3509C92.6994 28.4034 92.6806 28.4349 92.6351 28.4687L92.6336 28.4698C92.5971 28.4971 92.5688 28.506 92.5108 28.4964C92.4313 28.4831 92.3002 28.4314 92.1072 28.2941C92.1069 28.2938 92.1066 28.2936 92.1062 28.2934L88.29 25.5456L87.9975 25.335L87.7053 25.5459L83.8966 28.2934C83.8962 28.2936 83.8958 28.2939 83.8954 28.2942C83.7037 28.4305 83.5708 28.4828 83.4897 28.4963C83.4287 28.5064 83.4033 28.4958 83.3738 28.4733Z" fill="#FF9D48" stroke="#FF9D48"/>
</g>
<g clip-path="url(#clip4_3164_6601)">
<path d="M105.374 28.4733L105.374 28.4732L105.368 28.4687C105.322 28.4349 105.303 28.4034 105.295 28.3509C105.283 28.2814 105.288 28.1521 105.362 27.9396H105.362L105.363 27.9368L106.869 23.5408C106.941 23.3306 106.865 23.0982 106.684 22.9702L102.836 20.2562L102.836 20.2562L102.834 20.2544C102.643 20.1218 102.556 20.0175 102.521 19.9512C102.496 19.9042 102.495 19.8787 102.509 19.839L102.51 19.8362C102.523 19.7983 102.542 19.7705 102.599 19.742C102.671 19.7062 102.807 19.6705 103.039 19.6735L103.042 19.6735L107.761 19.7018C107.979 19.7031 108.173 19.5633 108.24 19.3561L109.673 14.9402C109.746 14.7193 109.822 14.6057 109.876 14.5519C109.917 14.5114 109.949 14.5 109.998 14.5C110.053 14.5 110.086 14.5133 110.127 14.5531C110.181 14.6064 110.256 14.7192 110.33 14.9402C110.33 14.9406 110.33 14.941 110.33 14.9415L111.763 19.3561C111.83 19.5633 112.024 19.7031 112.241 19.7018L116.96 19.6735L116.964 19.6734C117.196 19.6705 117.332 19.7062 117.404 19.742C117.459 19.7698 117.479 19.7969 117.492 19.8333C117.505 19.8764 117.503 19.9061 117.479 19.9531C117.444 20.0192 117.358 20.1229 117.169 20.2544L117.169 20.2544L117.166 20.2562L113.319 22.9702C113.138 23.0982 113.062 23.3306 113.134 23.5408L114.64 27.9368L114.641 27.9396C114.715 28.1521 114.72 28.2814 114.708 28.3509C114.699 28.4034 114.681 28.4349 114.635 28.4687L114.634 28.4698C114.597 28.4971 114.569 28.506 114.511 28.4964C114.431 28.4831 114.3 28.4314 114.107 28.2941C114.107 28.2938 114.107 28.2936 114.106 28.2934L110.29 25.5456C110.115 25.4198 109.88 25.42 109.705 25.5459L105.897 28.2934C105.896 28.2937 105.896 28.294 105.895 28.2942C105.704 28.4305 105.571 28.4828 105.49 28.4963C105.429 28.5064 105.403 28.4958 105.374 28.4733Z" stroke="#FF9D48" stroke-linejoin="round"/>
<mask id="mask0_3164_6601" style="mask-type:alpha" maskUnits="userSpaceOnUse" x="102" y="14" width="16" height="16">
<path d="M105.374 28.4733L105.374 28.4732L105.368 28.4687C105.322 28.4349 105.303 28.4034 105.295 28.3509C105.283 28.2814 105.288 28.1521 105.362 27.9396H105.362L105.363 27.9368L106.869 23.5408C106.941 23.3306 106.865 23.0982 106.684 22.9702L102.836 20.2562L102.836 20.2562L102.834 20.2544C102.643 20.1218 102.556 20.0175 102.521 19.9512C102.496 19.9042 102.495 19.8787 102.509 19.839L102.51 19.8362C102.523 19.7983 102.542 19.7705 102.599 19.742C102.671 19.7062 102.807 19.6705 103.039 19.6735L103.042 19.6735L107.761 19.7018C107.979 19.7031 108.173 19.5633 108.24 19.3561L109.673 14.9402C109.746 14.7193 109.822 14.6057 109.876 14.5519C109.917 14.5114 109.949 14.5 109.998 14.5C110.053 14.5 110.086 14.5133 110.127 14.5531C110.181 14.6064 110.256 14.7192 110.33 14.9402C110.33 14.9406 110.33 14.941 110.33 14.9415L111.763 19.3561C111.83 19.5633 112.024 19.7031 112.241 19.7018L116.96 19.6735L116.964 19.6734C117.196 19.6705 117.332 19.7062 117.404 19.742C117.459 19.7698 117.479 19.7969 117.492 19.8333C117.505 19.8764 117.503 19.9061 117.479 19.9531C117.444 20.0192 117.358 20.1229 117.169 20.2544L117.169 20.2544L117.166 20.2562L113.319 22.9702C113.138 23.0982 113.062 23.3306 113.134 23.5408L114.64 27.9368L114.641 27.9396C114.715 28.1521 114.72 28.2814 114.708 28.3509C114.699 28.4034 114.681 28.4349 114.635 28.4687L114.634 28.4698C114.597 28.4971 114.569 28.506 114.511 28.4964C114.431 28.4831 114.3 28.4314 114.107 28.2941C114.107 28.2938 114.107 28.2936 114.106 28.2934L110.29 25.5456C110.115 25.4198 109.88 25.42 109.705 25.5459L105.897 28.2934C105.896 28.2936 105.896 28.2939 105.895 28.2942C105.704 28.4305 105.571 28.4828 105.49 28.4963C105.429 28.5064 105.403 28.4958 105.374 28.4733Z" fill="white" stroke="white" stroke-linejoin="round"/>
</mask>
<g mask="url(#mask0_3164_6601)">
<path d="M109.881 14.75H101.188V29.5H109.881V14.75Z" fill="#FF9D48" stroke="#FF9D48" stroke-width="1.5"/>
</g>
</g>
<path d="M17.8027 37.4453C18.2539 37.4453 18.6048 37.3826 18.8555 37.2573C19.2493 37.0604 19.4463 36.7059 19.4463 36.1938C19.4463 35.6782 19.2368 35.3309 18.8179 35.1519C18.5815 35.0516 18.2306 35.0015 17.7651 35.0015H15.8584V37.4453H17.8027ZM18.1626 41.0869C18.8179 41.0869 19.2852 40.8971 19.5645 40.5176C19.7399 40.2777 19.8276 39.9876 19.8276 39.6475C19.8276 39.0745 19.5716 38.6842 19.0596 38.4766C18.7874 38.3656 18.4276 38.3101 17.98 38.3101H15.8584V41.0869H18.1626ZM14.811 34.1099H18.2002C19.124 34.1099 19.7811 34.3856 20.1714 34.937C20.4006 35.2629 20.5151 35.6388 20.5151 36.0649C20.5151 36.5627 20.3737 36.9709 20.0908 37.2896C19.944 37.4578 19.7327 37.6118 19.457 37.7515C19.8617 37.9054 20.1642 38.0791 20.3647 38.2725C20.7192 38.6162 20.8965 39.0907 20.8965 39.6958C20.8965 40.2043 20.7371 40.6644 20.4185 41.0762C19.9422 41.6921 19.1849 42 18.1465 42H14.811V34.1099ZM22.7871 40.4692C22.7871 40.7485 22.8892 40.9688 23.0933 41.1299C23.2974 41.291 23.5391 41.3716 23.8184 41.3716C24.1585 41.3716 24.488 41.2928 24.8066 41.1353C25.3438 40.8739 25.6123 40.446 25.6123 39.8516V39.0728C25.4941 39.1479 25.342 39.2106 25.1558 39.2607C24.9696 39.3109 24.7869 39.3467 24.6079 39.3682L24.0225 39.4434C23.6715 39.4899 23.4084 39.5633 23.2329 39.6636C22.9357 39.8319 22.7871 40.1004 22.7871 40.4692ZM25.1289 38.5142C25.3509 38.4855 25.4995 38.3924 25.5747 38.2349C25.6177 38.1489 25.6392 38.0254 25.6392 37.8643C25.6392 37.5348 25.521 37.2967 25.2847 37.1499C25.0519 36.9995 24.7171 36.9243 24.2803 36.9243C23.7754 36.9243 23.4173 37.0604 23.2061 37.3325C23.0879 37.4829 23.0109 37.7067 22.9751 38.0039H22.0728C22.0907 37.2949 22.3198 36.8026 22.7603 36.5269C23.2043 36.2476 23.7181 36.1079 24.3018 36.1079C24.9785 36.1079 25.5282 36.2368 25.9507 36.4946C26.3696 36.7524 26.5791 37.1535 26.5791 37.6978V41.0117C26.5791 41.112 26.5988 41.1925 26.6382 41.2534C26.6812 41.3143 26.7689 41.3447 26.9014 41.3447C26.9443 41.3447 26.9927 41.3429 27.0464 41.3394C27.1001 41.3322 27.1574 41.3232 27.2183 41.3125V42.0269C27.0679 42.0698 26.9533 42.0967 26.8745 42.1074C26.7957 42.1182 26.6883 42.1235 26.5522 42.1235C26.2192 42.1235 25.9775 42.0054 25.8271 41.769C25.7484 41.6437 25.6929 41.4665 25.6606 41.2373C25.4637 41.4951 25.1808 41.7189 24.812 41.9087C24.4432 42.0985 24.0368 42.1934 23.5928 42.1934C23.0592 42.1934 22.6224 42.0322 22.2822 41.71C21.9456 41.3841 21.7773 40.9777 21.7773 40.4907C21.7773 39.9572 21.9438 39.5436 22.2769 39.25C22.6099 38.9564 23.0467 38.7756 23.5874 38.7075L25.1289 38.5142ZM28.7437 40.1953C28.7723 40.5176 28.8529 40.7646 28.9854 40.9365C29.2288 41.248 29.6514 41.4038 30.2529 41.4038C30.611 41.4038 30.9261 41.3268 31.1982 41.1729C31.4704 41.0153 31.6064 40.7736 31.6064 40.4478C31.6064 40.2007 31.4972 40.0127 31.2788 39.8838C31.1392 39.805 30.8634 39.7137 30.4517 39.6099L29.6836 39.4165C29.193 39.2948 28.8314 39.1587 28.5986 39.0083C28.1833 38.7469 27.9756 38.3853 27.9756 37.9233C27.9756 37.3791 28.1707 36.9386 28.561 36.6021C28.9549 36.2655 29.4831 36.0972 30.1455 36.0972C31.012 36.0972 31.6369 36.3514 32.02 36.8599C32.2599 37.1821 32.3763 37.5295 32.3691 37.9019H31.4561C31.4382 37.6834 31.3612 37.4847 31.2251 37.3057C31.0031 37.0514 30.6182 36.9243 30.0703 36.9243C29.7051 36.9243 29.4276 36.9941 29.2378 37.1338C29.0516 37.2734 28.9585 37.4578 28.9585 37.687C28.9585 37.9377 29.082 38.1382 29.3291 38.2886C29.4723 38.3781 29.6836 38.4569 29.9629 38.5249L30.6021 38.6807C31.2967 38.849 31.7622 39.0119 31.9985 39.1694C32.3745 39.4165 32.5625 39.805 32.5625 40.335C32.5625 40.847 32.3674 41.2892 31.9771 41.6616C31.5903 42.034 30.9995 42.2202 30.2046 42.2202C29.3488 42.2202 28.7419 42.0269 28.3838 41.6401C28.0293 41.2498 27.8395 40.7682 27.8145 40.1953H28.7437ZM36.0645 36.1187C36.4727 36.1187 36.8683 36.2153 37.2515 36.4087C37.6346 36.5985 37.9264 36.8455 38.127 37.1499C38.3203 37.4399 38.4492 37.7783 38.5137 38.165C38.571 38.43 38.5996 38.8525 38.5996 39.4326H34.3833C34.4012 40.0163 34.5391 40.4854 34.7969 40.8398C35.0547 41.1908 35.4539 41.3662 35.9946 41.3662C36.4995 41.3662 36.9023 41.1997 37.2031 40.8667C37.375 40.6733 37.4967 40.4495 37.5684 40.1953H38.519C38.494 40.4066 38.4098 40.6429 38.2666 40.9043C38.127 41.1621 37.9694 41.3734 37.7939 41.5381C37.5003 41.8245 37.1369 42.0179 36.7036 42.1182C36.4709 42.1755 36.2077 42.2041 35.9141 42.2041C35.1979 42.2041 34.591 41.9445 34.0933 41.4253C33.5955 40.9025 33.3467 40.172 33.3467 39.2339C33.3467 38.3101 33.5973 37.5599 34.0986 36.9834C34.5999 36.4069 35.2552 36.1187 36.0645 36.1187ZM37.606 38.6646C37.5666 38.2456 37.4753 37.9108 37.332 37.6602C37.0671 37.1947 36.6248 36.9619 36.0054 36.9619C35.5614 36.9619 35.189 37.123 34.8882 37.4453C34.5874 37.764 34.4281 38.1704 34.4102 38.6646H37.606ZM40.4043 39.1909C40.4043 39.8068 40.535 40.3224 40.7964 40.7378C41.0578 41.1532 41.4767 41.3608 42.0532 41.3608C42.5008 41.3608 42.8678 41.1693 43.1543 40.7861C43.4443 40.3994 43.5894 39.8462 43.5894 39.1265C43.5894 38.3996 43.4408 37.8625 43.1436 37.5151C42.8464 37.1642 42.4793 36.9888 42.0425 36.9888C41.5555 36.9888 41.1598 37.175 40.8555 37.5474C40.5547 37.9198 40.4043 38.4676 40.4043 39.1909ZM41.8599 36.1455C42.3003 36.1455 42.6691 36.2386 42.9663 36.4248C43.1382 36.5322 43.3333 36.7202 43.5518 36.9888V34.083H44.481V42H43.6108V41.1997C43.3853 41.5542 43.1185 41.8102 42.8105 41.9678C42.5026 42.1253 42.1499 42.2041 41.7524 42.2041C41.1115 42.2041 40.5565 41.9355 40.0874 41.3984C39.6183 40.8577 39.3838 40.1398 39.3838 39.2446C39.3838 38.4067 39.5968 37.6816 40.0229 37.0693C40.4526 36.4535 41.0649 36.1455 41.8599 36.1455ZM51.2593 41.377C51.9002 41.377 52.3389 41.1353 52.5752 40.6519C52.8151 40.1649 52.9351 39.6242 52.9351 39.0298C52.9351 38.4927 52.8491 38.0558 52.6772 37.7192C52.4051 37.1893 51.936 36.9243 51.27 36.9243C50.6792 36.9243 50.2495 37.1499 49.981 37.6011C49.7124 38.0522 49.5781 38.5965 49.5781 39.2339C49.5781 39.8462 49.7124 40.3564 49.981 40.7646C50.2495 41.1729 50.6756 41.377 51.2593 41.377ZM51.2969 36.0811C52.0381 36.0811 52.6647 36.3281 53.1768 36.8223C53.6888 37.3164 53.9448 38.0433 53.9448 39.0029C53.9448 39.9303 53.7192 40.6966 53.2681 41.3018C52.8169 41.9069 52.1169 42.2095 51.168 42.2095C50.3766 42.2095 49.7482 41.9427 49.2827 41.4092C48.8172 40.8721 48.5845 40.1523 48.5845 39.25C48.5845 38.2832 48.8298 37.5133 49.3203 36.9404C49.8109 36.3675 50.4697 36.0811 51.2969 36.0811ZM55.0996 36.2476H56.0181V37.064C56.2902 36.7274 56.5785 36.4857 56.8828 36.3389C57.1872 36.1921 57.5256 36.1187 57.8979 36.1187C58.7144 36.1187 59.2658 36.4033 59.5522 36.9727C59.7098 37.2842 59.7886 37.73 59.7886 38.3101V42H58.8057V38.3745C58.8057 38.0236 58.7537 37.7407 58.6499 37.5259C58.478 37.1678 58.1665 36.9888 57.7153 36.9888C57.4862 36.9888 57.2982 37.012 57.1514 37.0586C56.8864 37.1374 56.6536 37.2949 56.4531 37.5312C56.292 37.721 56.1864 37.918 56.1362 38.1221C56.0897 38.3226 56.0664 38.6108 56.0664 38.9868V42H55.0996V36.2476ZM64.9341 40.0396C64.9985 40.591 65.2546 40.9723 65.7021 41.1836C65.9313 41.291 66.1963 41.3447 66.4971 41.3447C67.07 41.3447 67.4943 41.1621 67.77 40.7969C68.0457 40.4316 68.1836 40.027 68.1836 39.583C68.1836 39.0459 68.0189 38.6305 67.6895 38.3369C67.3636 38.0433 66.9715 37.8965 66.5132 37.8965C66.1802 37.8965 65.8937 37.9609 65.6538 38.0898C65.4175 38.2188 65.2152 38.3978 65.0469 38.627L64.209 38.5786L64.7944 34.4375H68.7905V35.3721H65.5195L65.1919 37.5098C65.3709 37.3737 65.541 37.2716 65.7021 37.2036C65.9886 37.0854 66.3198 37.0264 66.6958 37.0264C67.4012 37.0264 67.9992 37.2537 68.4897 37.7085C68.9803 38.1632 69.2256 38.7397 69.2256 39.438C69.2256 40.1649 69 40.8058 68.5488 41.3608C68.1012 41.9159 67.3851 42.1934 66.4004 42.1934C65.7738 42.1934 65.2188 42.0179 64.7354 41.667C64.2555 41.3125 63.987 40.77 63.9297 40.0396H64.9341ZM70.751 36.5537V35.8125C71.4492 35.7445 71.9362 35.6317 72.2119 35.4741C72.4876 35.313 72.6935 34.9352 72.8296 34.3408H73.5923V42H72.561V36.5537H70.751ZM79.4575 39.2769V35.791L76.9922 39.2769H79.4575ZM79.4736 42V40.1201H76.1006V39.1748L79.624 34.2871H80.4404V39.2769H81.5737V40.1201H80.4404V42H79.4736ZM83.4053 40.1416C83.4339 40.6751 83.6398 41.0439 84.0229 41.248C84.2199 41.3555 84.4419 41.4092 84.689 41.4092C85.1509 41.4092 85.5448 41.2176 85.8706 40.8345C86.1965 40.4478 86.4274 39.6654 86.5635 38.4873C86.3486 38.8275 86.0819 39.0674 85.7632 39.207C85.4481 39.3431 85.1079 39.4111 84.7427 39.4111C84.0015 39.4111 83.4142 39.1802 82.981 38.7183C82.5513 38.2563 82.3364 37.6619 82.3364 36.9351C82.3364 36.2368 82.5495 35.6227 82.9756 35.0928C83.4017 34.5628 84.0301 34.2979 84.8608 34.2979C85.9816 34.2979 86.755 34.8027 87.1812 35.8125C87.4175 36.3675 87.5356 37.0622 87.5356 37.8965C87.5356 38.8382 87.3942 39.6725 87.1113 40.3994C86.6423 41.6097 85.8473 42.2148 84.7266 42.2148C83.9746 42.2148 83.4035 42.0179 83.0132 41.624C82.6229 41.2301 82.4277 40.736 82.4277 40.1416H83.4053ZM84.8716 38.5625C85.2547 38.5625 85.6038 38.4372 85.9189 38.1865C86.2376 37.9323 86.397 37.4901 86.397 36.8599C86.397 36.2941 86.2537 35.8734 85.9673 35.5977C85.6844 35.3184 85.3228 35.1787 84.8823 35.1787C84.4097 35.1787 84.0337 35.3381 83.7544 35.6567C83.4787 35.9718 83.3408 36.3944 83.3408 36.9243C83.3408 37.4256 83.4626 37.8249 83.7061 38.1221C83.9495 38.4157 84.3381 38.5625 84.8716 38.5625ZM88.5615 39.6475V38.7451H90.9033V36.3872H91.8218V38.7451H94.1636V39.6475H91.8218V42H90.9033V39.6475H88.5615ZM98.2886 36.2476H99.207V37.2412C99.2822 37.0479 99.4666 36.8133 99.7603 36.5376C100.054 36.2583 100.392 36.1187 100.775 36.1187C100.793 36.1187 100.824 36.1204 100.867 36.124C100.91 36.1276 100.983 36.1348 101.087 36.1455V37.166C101.03 37.1553 100.976 37.1481 100.926 37.1445C100.879 37.141 100.827 37.1392 100.77 37.1392C100.283 37.1392 99.9089 37.2967 99.6475 37.6118C99.3861 37.9233 99.2554 38.2832 99.2554 38.6914V42H98.2886V36.2476ZM104.32 36.1187C104.729 36.1187 105.124 36.2153 105.507 36.4087C105.89 36.5985 106.182 36.8455 106.383 37.1499C106.576 37.4399 106.705 37.7783 106.77 38.165C106.827 38.43 106.855 38.8525 106.855 39.4326H102.639C102.657 40.0163 102.795 40.4854 103.053 40.8398C103.311 41.1908 103.71 41.3662 104.25 41.3662C104.755 41.3662 105.158 41.1997 105.459 40.8667C105.631 40.6733 105.753 40.4495 105.824 40.1953H106.775C106.75 40.4066 106.666 40.6429 106.522 40.9043C106.383 41.1621 106.225 41.3734 106.05 41.5381C105.756 41.8245 105.393 42.0179 104.959 42.1182C104.727 42.1755 104.464 42.2041 104.17 42.2041C103.454 42.2041 102.847 41.9445 102.349 41.4253C101.851 40.9025 101.603 40.172 101.603 39.2339C101.603 38.3101 101.853 37.5599 102.354 36.9834C102.856 36.4069 103.511 36.1187 104.32 36.1187ZM105.862 38.6646C105.822 38.2456 105.731 37.9108 105.588 37.6602C105.323 37.1947 104.881 36.9619 104.261 36.9619C103.817 36.9619 103.445 37.123 103.144 37.4453C102.843 37.764 102.684 38.1704 102.666 38.6646H105.862ZM108.521 36.2476L110.057 40.9312L111.663 36.2476H112.721L110.551 42H109.52L107.398 36.2476H108.521ZM113.548 36.2744H114.531V42H113.548V36.2744ZM113.548 34.1099H114.531V35.2056H113.548V34.1099ZM118.393 36.1187C118.801 36.1187 119.196 36.2153 119.58 36.4087C119.963 36.5985 120.255 36.8455 120.455 37.1499C120.648 37.4399 120.777 37.7783 120.842 38.165C120.899 38.43 120.928 38.8525 120.928 39.4326H116.711C116.729 40.0163 116.867 40.4854 117.125 40.8398C117.383 41.1908 117.782 41.3662 118.323 41.3662C118.828 41.3662 119.23 41.1997 119.531 40.8667C119.703 40.6733 119.825 40.4495 119.896 40.1953H120.847C120.822 40.4066 120.738 40.6429 120.595 40.9043C120.455 41.1621 120.298 41.3734 120.122 41.5381C119.828 41.8245 119.465 42.0179 119.032 42.1182C118.799 42.1755 118.536 42.2041 118.242 42.2041C117.526 42.2041 116.919 41.9445 116.421 41.4253C115.924 40.9025 115.675 40.172 115.675 39.2339C115.675 38.3101 115.925 37.5599 116.427 36.9834C116.928 36.4069 117.583 36.1187 118.393 36.1187ZM119.934 38.6646C119.895 38.2456 119.803 37.9108 119.66 37.6602C119.395 37.1947 118.953 36.9619 118.333 36.9619C117.889 36.9619 117.517 37.123 117.216 37.4453C116.916 37.764 116.756 38.1704 116.738 38.6646H119.934ZM122.566 36.2476L123.672 40.7808L124.795 36.2476H125.88L127.008 40.7539L128.184 36.2476H129.151L127.48 42H126.476L125.305 37.5474L124.172 42H123.167L121.508 36.2476H122.566ZM130.644 40.1953C130.673 40.5176 130.753 40.7646 130.886 40.9365C131.129 41.248 131.552 41.4038 132.153 41.4038C132.511 41.4038 132.826 41.3268 133.099 41.1729C133.371 41.0153 133.507 40.7736 133.507 40.4478C133.507 40.2007 133.398 40.0127 133.179 39.8838C133.04 39.805 132.764 39.7137 132.352 39.6099L131.584 39.4165C131.093 39.2948 130.732 39.1587 130.499 39.0083C130.084 38.7469 129.876 38.3853 129.876 37.9233C129.876 37.3791 130.071 36.9386 130.461 36.6021C130.855 36.2655 131.383 36.0972 132.046 36.0972C132.912 36.0972 133.537 36.3514 133.92 36.8599C134.16 37.1821 134.277 37.5295 134.27 37.9019H133.356C133.339 37.6834 133.262 37.4847 133.125 37.3057C132.903 37.0514 132.519 36.9243 131.971 36.9243C131.605 36.9243 131.328 36.9941 131.138 37.1338C130.952 37.2734 130.859 37.4578 130.859 37.687C130.859 37.9377 130.982 38.1382 131.229 38.2886C131.373 38.3781 131.584 38.4569 131.863 38.5249L132.502 38.6807C133.197 38.849 133.663 39.0119 133.899 39.1694C134.275 39.4165 134.463 39.805 134.463 40.335C134.463 40.847 134.268 41.2892 133.877 41.6616C133.491 42.034 132.9 42.2202 132.105 42.2202C131.249 42.2202 130.642 42.0269 130.284 41.6401C129.93 41.2498 129.74 40.7682 129.715 40.1953H130.644ZM136.08 36.3228H137.202V37.4937H136.08V36.3228ZM136.08 40.8291H137.202V42H136.08V40.8291Z" fill="#050038"/>
<g clip-path="url(#clip5_3164_6601)">
<path d="M169.825 29.667C169.825 32.5021 172.134 34.8112 174.969 34.8112C176.199 34.811 177.389 34.3683 178.321 33.5637L180.267 36.9407C178.73 38.0657 176.874 38.6705 174.969 38.667C169.998 38.667 165.969 34.6379 165.969 29.667C165.969 24.696 169.998 20.667 174.969 20.667C175.56 20.6669 176.15 20.7249 176.73 20.8403L174.969 24.5228C172.134 24.5228 169.825 26.8318 169.825 29.667ZM181.621 25.9818H178.931C179.003 25.5596 179.264 25.3234 179.794 25.0556L180.288 24.8036C181.173 24.35 181.646 23.8365 181.646 22.9986C181.646 22.4725 181.441 22.0567 181.035 21.7574C180.628 21.4582 180.15 21.3101 179.589 21.3101C179.155 21.305 178.729 21.4265 178.364 21.6598C177.995 21.8866 177.721 22.1795 177.551 22.545L178.329 23.3262C178.631 22.7151 179.069 22.4158 179.646 22.4158C180.134 22.4158 180.433 22.6678 180.433 23.0175C180.433 23.3104 180.288 23.553 179.728 23.8365L179.409 23.9909C178.719 24.3405 178.241 24.7406 177.963 25.1942C177.686 25.6479 177.551 26.218 177.551 26.9079V27.0969H181.621V25.9818ZM181.264 28.3822H176.809L174.582 32.238H179.036L181.264 36.0969L183.491 32.238L181.264 28.3822Z" fill="#050038"/>
</g>
<g clip-path="url(#clip6_3164_6601)">
<path d="M198.324 27.2866C198.337 26.7452 198.445 26.2103 198.642 25.7057C198.826 25.2407 199.11 24.8218 199.474 24.4783C199.863 24.1235 200.321 23.8531 200.82 23.6839C201.424 23.4858 202.057 23.3904 202.692 23.4029C203.4 23.3798 204.106 23.4904 204.773 23.7273C205.251 23.9038 205.692 24.1684 206.073 24.5073C206.365 24.767 206.596 25.0871 206.751 25.4454C206.863 25.7067 206.937 25.9827 206.972 26.2656C206.977 26.3176 206.971 26.3703 206.952 26.4192C206.933 26.468 206.903 26.5116 206.863 26.5462C206.786 26.6165 206.685 26.6551 206.58 26.6544H205.411C205.32 26.6586 205.23 26.6306 205.158 26.5752C205.101 26.5299 205.055 26.4732 205.022 26.4089C204.973 26.3232 204.922 26.2386 204.87 26.155C204.763 25.9998 204.631 25.8634 204.479 25.7514C204.266 25.5928 204.03 25.4666 203.78 25.3768C203.432 25.2558 203.065 25.1996 202.697 25.2109C202.066 25.1794 201.447 25.3882 200.964 25.7951C200.746 25.9941 200.572 26.236 200.453 26.5057C200.334 26.7754 200.272 27.0668 200.271 27.3617C200.25 27.7538 200.24 28.1463 200.242 28.5389C200.242 28.9568 200.242 29.3499 200.271 29.7162C200.298 30.5151 200.531 31.0952 200.964 31.4551C201.457 31.8356 202.07 32.0274 202.692 31.996C203.023 31.9985 203.353 31.9594 203.674 31.8794C203.955 31.8108 204.218 31.6831 204.446 31.5053C204.67 31.3224 204.843 31.086 204.952 30.8188C205.081 30.487 205.142 30.1336 205.133 29.7784V29.6558H203.371C203.319 29.6566 203.268 29.6467 203.221 29.6266C203.174 29.6065 203.131 29.5768 203.096 29.5392C203.059 29.5041 203.03 29.4618 203.011 29.415C202.991 29.3681 202.981 29.3178 202.981 29.2669V28.2408C202.982 28.1377 203.024 28.0391 203.096 27.9661C203.169 27.893 203.268 27.8512 203.371 27.8496H206.699C206.802 27.8512 206.9 27.893 206.973 27.9662C207.046 28.0394 207.087 28.1381 207.088 28.2413V29.8281C207.094 30.3723 207.001 30.9129 206.813 31.4237C206.633 31.8968 206.349 32.3233 205.981 32.6715C205.588 33.0431 205.12 33.3267 204.608 33.5036C203.363 33.8934 202.028 33.8934 200.783 33.5036C200.286 33.3393 199.83 33.0697 199.447 32.7134C199.087 32.3615 198.809 31.9353 198.631 31.4647C198.438 30.9544 198.333 30.4151 198.319 29.8696C198.319 29.6867 198.303 29.4849 198.299 29.2642C198.295 29.0439 198.299 28.8149 198.299 28.5841V27.9059C198.299 27.6833 198.311 27.4898 198.319 27.2986M211.536 27.7358C211.291 27.729 211.048 27.7708 210.82 27.8589C210.635 27.9317 210.467 28.0386 210.323 28.1749C210.192 28.2987 210.086 28.4462 210.011 28.6094C209.944 28.7534 209.898 28.9063 209.876 29.0633H213.137C213.116 28.9088 213.08 28.7567 213.029 28.6094C212.975 28.4473 212.886 28.299 212.769 28.1749C212.635 28.0363 212.472 27.9284 212.293 27.8589C212.051 27.7685 211.793 27.7267 211.535 27.7358H211.536ZM207.999 29.9014C207.995 29.3835 208.078 28.8693 208.245 28.3786C208.396 27.92 208.636 27.4958 208.952 27.1304C209.262 26.7778 209.644 26.4945 210.071 26.2987C210.529 26.0941 211.026 25.9911 211.527 25.9969C212.028 25.9906 212.524 26.0912 212.983 26.2923C213.413 26.4796 213.8 26.7536 214.119 27.0972C214.432 27.4362 214.675 27.8334 214.834 28.2662C215.004 28.7163 215.09 29.1937 215.088 29.6747V30.3239C215.087 30.4271 215.045 30.5256 214.972 30.5985C214.899 30.6714 214.8 30.7131 214.697 30.7146H209.875C209.871 30.9178 209.917 31.1192 210.011 31.2993C210.103 31.4629 210.229 31.6048 210.381 31.7154C210.541 31.8338 210.722 31.9218 210.913 31.9753C211.117 32.0318 211.327 32.0605 211.538 32.0605C211.791 32.0679 212.044 32.0361 212.289 31.967C212.459 31.9154 212.62 31.8352 212.765 31.7297C212.846 31.6675 212.933 31.614 213.025 31.5698C213.112 31.5371 213.206 31.5219 213.3 31.526H214.454C214.56 31.5274 214.661 31.5693 214.737 31.6426C214.775 31.6766 214.805 31.7192 214.824 31.7669C214.842 31.8146 214.85 31.8661 214.845 31.9172C214.813 32.1058 214.736 32.284 214.621 32.4369C214.451 32.6811 214.24 32.8922 213.996 33.0613C213.676 33.2838 213.326 33.459 212.956 33.5815C212.497 33.731 212.016 33.8011 211.533 33.7888C211.034 33.7946 210.539 33.6993 210.077 33.5087C209.647 33.3306 209.262 33.0591 208.95 32.7139C208.634 32.3529 208.394 31.9328 208.243 31.4781C208.073 30.9685 207.99 30.4342 207.997 29.8972M218.546 30.9413C218.532 31.2012 218.618 31.456 218.785 31.655C218.943 31.8338 219.239 31.9232 219.674 31.9232H220.554C220.657 31.9244 220.755 31.9657 220.828 32.0383C220.901 32.1109 220.943 32.2091 220.944 32.3121V33.2649C220.943 33.3682 220.901 33.4668 220.828 33.5398C220.755 33.6128 220.656 33.6546 220.553 33.6561H219.484C218.578 33.6561 217.885 33.4368 217.404 32.9986C216.923 32.5609 216.68 31.8891 216.676 30.9851V27.8796H215.715C215.664 27.8802 215.613 27.8702 215.566 27.8501C215.519 27.83 215.477 27.8004 215.443 27.763C215.405 27.7285 215.375 27.6863 215.355 27.6392C215.335 27.5922 215.325 27.5414 215.326 27.4903V26.536C215.325 26.485 215.335 26.4345 215.356 26.3876C215.376 26.3407 215.405 26.2985 215.443 26.2637C215.478 26.2268 215.52 26.1974 215.567 26.1773C215.613 26.1573 215.664 26.147 215.715 26.1472H216.67V23.7927C216.671 23.6899 216.713 23.5918 216.785 23.5191C216.858 23.4464 216.956 23.4049 217.059 23.4033H218.157C218.26 23.4049 218.358 23.4463 218.43 23.5189C218.503 23.5915 218.545 23.6895 218.546 23.7922V26.1467H220.418C220.518 26.1525 220.612 26.1959 220.681 26.2681C220.75 26.3404 220.789 26.4361 220.791 26.536V27.4907C220.789 27.5934 220.748 27.6915 220.675 27.7642C220.602 27.8368 220.504 27.8784 220.402 27.8801H218.529L218.546 30.9418V30.9413ZM228.035 29.8866L226.445 25.7703L224.858 29.8866H228.035ZM227.24 23.5466C227.303 23.5421 227.366 23.5506 227.426 23.5717C227.486 23.5928 227.541 23.626 227.587 23.6692C227.68 23.777 227.751 23.9023 227.795 24.0378L231.332 33.1654C231.341 33.1976 231.346 33.2313 231.346 33.2649C231.345 33.3681 231.303 33.4667 231.23 33.5398C231.157 33.6128 231.058 33.6545 230.955 33.6561H229.915C229.843 33.6637 229.769 33.6567 229.7 33.6357C229.63 33.6147 229.565 33.5799 229.509 33.5335C229.441 33.465 229.388 33.3835 229.351 33.2939L228.727 31.6924H224.165L223.541 33.2939C223.505 33.3835 223.451 33.465 223.383 33.5335C223.327 33.58 223.262 33.6148 223.192 33.6359C223.123 33.6569 223.05 33.6638 222.977 33.6561H221.937C221.834 33.6538 221.736 33.6118 221.664 33.5389C221.591 33.466 221.55 33.3678 221.548 33.2649C221.547 33.2311 221.552 33.1975 221.563 33.1654L225.099 24.0378C225.143 23.9023 225.214 23.777 225.307 23.6692C225.354 23.6257 225.408 23.5924 225.468 23.5713C225.528 23.5502 225.591 23.5418 225.655 23.5466H227.24ZM237.522 30.305C237.551 30.0367 237.551 29.7661 237.522 29.4978C237.466 28.8739 237.273 28.4205 236.946 28.1478C236.61 27.8689 236.185 27.7211 235.748 27.7317C235.313 27.7179 234.888 27.8662 234.556 28.1478C234.389 28.3009 234.254 28.4855 234.158 28.6912C234.063 28.8968 234.009 29.1192 234 29.3457C233.978 29.5279 233.969 29.7114 233.971 29.8949C233.969 30.0788 233.978 30.2622 234 30.4442C234.026 30.8957 234.225 31.3201 234.556 31.6283C234.884 31.9186 235.31 32.0734 235.748 32.0605C236.185 32.0711 236.61 31.9233 236.946 31.6444C237.273 31.3721 237.466 30.921 237.522 30.2944V30.305ZM236.185 33.7999C235.915 33.8026 235.647 33.7739 235.384 33.7142C235.169 33.6663 234.96 33.5967 234.76 33.5064C234.6 33.4261 234.45 33.3284 234.312 33.2152C234.204 33.1297 234.104 33.0358 234.011 32.9341V36.0087C234.009 36.1119 233.968 36.2105 233.895 36.2835C233.822 36.3565 233.723 36.3982 233.62 36.3999H232.524C232.42 36.3986 232.322 36.357 232.249 36.2839C232.175 36.2108 232.134 36.1121 232.132 36.0087V26.536C232.135 26.4333 232.177 26.3355 232.25 26.263C232.323 26.1905 232.421 26.149 232.524 26.1472H233.62C233.723 26.1488 233.821 26.1902 233.894 26.2627C233.967 26.3352 234.009 26.4332 234.011 26.536V26.8692C234.224 26.6335 234.481 26.442 234.768 26.3057C234.969 26.2152 235.178 26.1454 235.392 26.0974C235.655 26.0378 235.924 26.0092 236.193 26.0121C236.644 26.0056 237.091 26.1015 237.499 26.2927C237.879 26.4724 238.218 26.7282 238.496 27.0438C238.775 27.364 238.995 27.7308 239.147 28.1275C239.305 28.5357 239.395 28.967 239.413 29.4047C239.423 29.548 239.428 29.7166 239.428 29.9101C239.428 30.1037 239.428 30.2723 239.413 30.4156C239.395 30.8531 239.305 31.2846 239.147 31.6928C238.995 32.0895 238.775 32.4563 238.496 32.7765C238.218 33.0921 237.879 33.3476 237.499 33.5275C237.088 33.7171 236.638 33.8103 236.185 33.7999ZM245.685 30.305C245.714 30.0367 245.714 29.7661 245.685 29.4978C245.627 28.8739 245.436 28.4205 245.107 28.1478C244.771 27.8682 244.346 27.7204 243.909 27.7317C243.474 27.7179 243.049 27.8662 242.717 28.1478C242.55 28.3009 242.415 28.4855 242.319 28.6912C242.224 28.8968 242.17 29.1192 242.161 29.3457C242.14 29.528 242.131 29.7114 242.132 29.8949C242.13 30.0788 242.14 30.2622 242.161 30.4442C242.187 30.8957 242.386 31.3201 242.717 31.6283C243.045 31.9189 243.471 32.0735 243.909 32.0605C244.346 32.0718 244.771 31.9239 245.107 31.6444C245.436 31.3721 245.627 30.921 245.685 30.2944V30.305ZM244.342 33.7893C244.072 33.7921 243.804 33.7635 243.541 33.704C243.326 33.6557 243.117 33.5859 242.916 33.4958C242.755 33.4187 242.603 33.3238 242.463 33.2128C242.355 33.1273 242.253 33.0334 242.159 32.9318V36.0087C242.16 36.06 242.149 36.1108 242.129 36.158C242.109 36.2052 242.08 36.2479 242.043 36.2833C242.008 36.3203 241.966 36.3496 241.919 36.3697C241.872 36.3897 241.822 36.4 241.771 36.3999H240.672C240.569 36.3982 240.471 36.3564 240.398 36.2833C240.326 36.2103 240.284 36.1117 240.283 36.0087V26.536C240.284 26.4333 240.326 26.335 240.398 26.2624C240.471 26.1897 240.569 26.1483 240.672 26.1472H241.771C241.873 26.1496 241.97 26.1914 242.043 26.2638C242.115 26.3362 242.157 26.4337 242.159 26.536V26.8692C242.253 26.7678 242.355 26.6733 242.463 26.5881C242.603 26.4775 242.755 26.3821 242.916 26.3052C243.117 26.2152 243.326 26.1456 243.541 26.0974C243.804 26.0379 244.072 26.0093 244.342 26.0121C244.793 26.0056 245.241 26.1015 245.65 26.2927C246.029 26.4735 246.368 26.729 246.646 27.0438C246.925 27.3641 247.144 27.7309 247.296 28.1275C247.454 28.5357 247.544 28.967 247.562 29.4047C247.572 29.548 247.576 29.7166 247.576 29.9101C247.576 30.1037 247.576 30.2723 247.562 30.4156C247.544 30.8531 247.454 31.2846 247.296 31.6928C247.144 32.0893 246.925 32.4562 246.646 32.7765C246.368 33.0913 246.029 33.3468 245.65 33.5275C245.241 33.7189 244.793 33.815 244.342 33.8086" fill="#050038"/>
</g>
<g clip-path="url(#clip7_3164_6601)">
<path d="M270.379 33.0433C270.317 33.1056 270.213 33.1834 270.068 33.2768C269.922 33.3703 269.733 33.4637 269.5 33.5572C269.266 33.6505 268.98 33.7308 268.643 33.7985C268.306 33.8658 267.919 33.8997 267.483 33.8997C266.642 33.8997 265.916 33.7646 265.303 33.4949C264.691 33.2252 264.184 32.8486 263.785 32.366C263.385 31.8833 263.092 31.3125 262.905 30.6531C262.718 29.994 262.625 29.27 262.625 28.481C262.625 27.6923 262.726 26.9628 262.929 26.2933C263.131 25.6237 263.435 25.0452 263.839 24.5571C264.244 24.0693 264.75 23.6878 265.358 23.4126C265.965 23.1378 266.679 23 267.499 23C267.904 23 268.269 23.0365 268.596 23.109C268.923 23.1817 269.209 23.2674 269.453 23.3659C269.697 23.4647 269.899 23.5683 270.06 23.6773C270.221 23.7863 270.343 23.8774 270.426 23.9498C270.52 24.033 270.6 24.1316 270.667 24.2456C270.735 24.36 270.769 24.4846 270.769 24.6194C270.769 24.8271 270.691 25.0347 270.535 25.2422C270.379 25.45 270.208 25.642 270.021 25.8184C269.897 25.6938 269.757 25.5668 269.601 25.4369C269.445 25.3072 269.271 25.1931 269.079 25.0943C268.887 24.9958 268.669 24.9128 268.425 24.8452C268.181 24.7778 267.909 24.7439 267.608 24.7439C267.078 24.7439 266.635 24.8505 266.276 25.0632C265.918 25.2761 265.63 25.5536 265.412 25.8962C265.194 26.2388 265.039 26.6307 264.945 27.0718C264.852 27.5131 264.805 27.962 264.805 28.4187C264.805 28.9068 264.852 29.3739 264.945 29.8201C265.038 30.2664 265.199 30.661 265.428 31.0034C265.656 31.346 265.955 31.6212 266.323 31.8287C266.691 32.0365 267.151 32.1401 267.701 32.1401C267.992 32.1401 268.259 32.1039 268.503 32.0312C268.747 31.9586 268.962 31.8703 269.149 31.7663C269.336 31.6628 269.5 31.5539 269.64 31.4395C269.78 31.3253 269.897 31.2268 269.99 31.1436C270.052 31.2164 270.125 31.3047 270.208 31.4084C270.292 31.5131 270.37 31.6223 270.442 31.7354C270.514 31.8497 270.576 31.9638 270.628 32.0778C270.68 32.1922 270.706 32.2959 270.706 32.3892C270.706 32.5243 270.68 32.6384 270.628 32.7318C270.576 32.8253 270.493 32.9292 270.379 33.0433ZM278.404 31.8491C278.404 32.6741 278.524 33.2746 278.764 33.6506C278.576 33.7235 278.401 33.7758 278.239 33.8072C278.077 33.8385 277.907 33.8541 277.73 33.8541C277.354 33.8541 277.069 33.781 276.876 33.6348C276.683 33.4888 276.56 33.2799 276.508 33.0082C276.278 33.2487 275.976 33.4522 275.6 33.6194C275.224 33.7861 274.764 33.8699 274.221 33.8699C273.939 33.8699 273.657 33.8308 273.375 33.753C273.093 33.6745 272.837 33.5472 272.608 33.3705C272.378 33.1934 272.19 32.9565 272.044 32.6598C271.897 32.3631 271.824 32.0014 271.824 31.5747C271.824 31.0438 271.952 30.6116 272.208 30.2786C272.464 29.9454 272.785 29.6826 273.172 29.4899C273.558 29.2975 273.976 29.165 274.425 29.0919C274.874 29.019 275.286 28.9723 275.662 28.9512C275.788 28.9409 275.91 28.9355 276.031 28.9355H276.367V28.6504C276.367 28.249 276.26 27.9638 276.046 27.795C275.832 27.6261 275.485 27.5414 275.004 27.5414C274.555 27.5414 274.156 27.6145 273.806 27.7607C273.456 27.907 273.114 28.074 272.78 28.262C272.634 28.0845 272.516 27.8887 272.428 27.6745C272.339 27.4606 272.294 27.3013 272.294 27.1968C272.294 27.0506 272.375 26.9097 272.537 26.7738C272.699 26.6382 272.921 26.5153 273.203 26.4057C273.485 26.296 273.809 26.2074 274.174 26.1394C274.54 26.0716 274.926 26.0376 275.333 26.0376C275.897 26.0376 276.375 26.0951 276.767 26.2099C277.158 26.3249 277.477 26.5024 277.722 26.7425C277.968 26.9829 278.143 27.2829 278.247 27.6432C278.351 28.0035 278.404 28.424 278.404 28.9042V31.8491ZM276.399 30.032H276.179C276.106 30.032 276.033 30.0374 275.96 30.0477C275.699 30.0688 275.44 30.1 275.185 30.1416C274.929 30.1835 274.701 30.2566 274.503 30.361C274.305 30.4655 274.143 30.6013 274.018 30.7682C273.892 30.9354 273.83 31.1496 273.83 31.4106C273.83 31.703 273.913 31.9509 274.08 32.1546C274.247 32.3583 274.529 32.4601 274.926 32.4601C275.124 32.4601 275.312 32.4341 275.49 32.3816C275.667 32.3297 275.824 32.2617 275.96 32.1782C276.096 32.0946 276.203 32.0033 276.281 31.9039C276.359 31.8048 276.399 31.7135 276.399 31.6299V30.032H276.399ZM282.304 26.9461C282.47 26.7478 282.731 26.5466 283.085 26.3429C283.439 26.1393 283.886 26.0375 284.428 26.0375C284.813 26.0375 285.18 26.1028 285.529 26.2333C285.877 26.364 286.187 26.5755 286.458 26.8677C286.729 27.1602 286.945 27.5467 287.106 28.0269C287.267 28.5074 287.348 29.0975 287.348 29.797C287.348 30.6115 287.254 31.2827 287.067 31.8099C286.879 32.3375 286.638 32.7552 286.341 33.0632C286.044 33.3713 285.714 33.588 285.349 33.7132C284.985 33.8385 284.621 33.9013 284.256 33.9013C283.954 33.9013 283.691 33.8673 283.468 33.7995C283.244 33.7314 283.054 33.656 282.898 33.5723C282.742 33.4888 282.622 33.4054 282.539 33.3216C282.455 33.2382 282.403 33.1806 282.382 33.1492V37H280.252V26.2567C280.304 26.2465 280.368 26.236 280.441 26.2255C280.505 26.2152 280.578 26.2073 280.663 26.2019C280.747 26.1968 280.847 26.1942 280.962 26.1942C281.309 26.1942 281.604 26.2517 281.846 26.3665C282.088 26.4815 282.241 26.6746 282.304 26.9461ZM285.124 29.844C285.124 29.5307 285.098 29.2385 285.046 28.9668C284.994 28.6954 284.908 28.4604 284.789 28.2619C284.669 28.0636 284.508 27.9094 284.306 27.7997C284.103 27.6901 283.857 27.6354 283.566 27.6354C283.13 27.6354 282.826 27.719 282.655 27.8859C282.484 28.0531 282.398 28.236 282.398 28.4342V31.7552C282.481 31.8389 282.629 31.9379 282.842 32.0528C283.055 32.1678 283.301 32.225 283.582 32.225C284.111 32.225 284.501 32.0164 284.75 31.5985C284.999 31.1809 285.124 30.5959 285.124 29.844ZM288.992 32.5384C288.919 32.3297 288.872 32.1102 288.851 31.8804C288.83 31.6508 288.82 31.4211 288.82 31.1911V23.9227C288.893 23.9124 288.971 23.9019 289.055 23.8914C289.128 23.8811 289.206 23.8733 289.29 23.8679C289.374 23.8628 289.457 23.8601 289.541 23.8601C289.708 23.8601 289.875 23.8758 290.042 23.9071C290.209 23.9384 290.36 24.0011 290.496 24.095C290.632 24.189 290.742 24.3171 290.825 24.4788C290.909 24.6408 290.95 24.8524 290.95 25.1132V26.2254H293.144V27.8076H290.95V31.1481C290.95 31.8766 291.248 32.2407 291.843 32.2407C291.989 32.2407 292.128 32.2173 292.258 32.1702C292.389 32.1232 292.506 32.0711 292.611 32.0136C292.715 31.9562 292.807 31.8962 292.885 31.8335C292.963 31.7708 293.018 31.7239 293.049 31.6925C293.206 31.9224 293.326 32.1214 293.41 32.2893C293.493 32.4575 293.535 32.6152 293.535 32.7627C293.535 32.8998 293.48 33.0343 293.371 33.166C293.261 33.2977 293.107 33.4191 292.909 33.5297C292.71 33.6403 292.47 33.7299 292.188 33.7985C291.906 33.867 291.598 33.9013 291.264 33.9013C290.616 33.9013 290.112 33.7759 289.752 33.5254C289.392 33.2746 289.138 32.9456 288.992 32.5384ZM298.539 32.3347C298.801 32.3347 299.032 32.3061 299.231 32.2485C299.43 32.1913 299.608 32.1208 299.765 32.0372C299.922 31.9538 300.059 31.8623 300.174 31.7631C300.289 31.6639 300.394 31.5726 300.489 31.4889C300.614 31.6454 300.745 31.8467 300.882 32.0919C301.018 32.3375 301.086 32.5384 301.086 32.695C301.086 32.9248 300.955 33.1337 300.694 33.3216C300.475 33.4888 300.164 33.6324 299.762 33.7524C299.36 33.8724 298.887 33.9325 298.345 33.9325C297.854 33.9325 297.371 33.8699 296.896 33.7446C296.42 33.6193 295.997 33.3999 295.627 33.0866C295.256 32.7734 294.956 32.3531 294.726 31.8257C294.496 31.2983 294.381 30.6327 294.381 29.8284C294.381 29.1704 294.483 28.6041 294.687 28.1288C294.89 27.6537 295.162 27.2594 295.501 26.9461C295.841 26.6328 296.224 26.4032 296.653 26.2568C297.081 26.1107 297.52 26.0375 297.969 26.0375C298.553 26.0375 299.049 26.1291 299.457 26.3117C299.864 26.4945 300.195 26.74 300.451 27.0479C300.707 27.356 300.892 27.7085 301.007 28.1053C301.122 28.5023 301.18 28.9198 301.18 29.3584V29.5777C301.18 29.6615 301.177 29.75 301.172 29.844C301.167 29.9381 301.161 30.0296 301.156 30.1181C301.151 30.2071 301.143 30.2775 301.133 30.3297H296.512C296.554 30.9041 296.732 31.3818 297.046 31.7631C297.36 32.1444 297.858 32.3347 298.539 32.3347ZM299.253 29.1547C299.253 28.6535 299.156 28.2462 298.961 27.9329C298.767 27.6197 298.418 27.4629 297.914 27.4629C297.483 27.4629 297.139 27.6118 296.882 27.9094C296.624 28.2071 296.496 28.6222 296.496 29.1547H299.253ZM304.887 26.9856C304.95 26.8925 305.033 26.7889 305.138 26.6748C305.242 26.5608 305.37 26.4572 305.522 26.364C305.673 26.2708 305.84 26.1929 306.023 26.1308C306.205 26.0686 306.401 26.0375 306.611 26.0375C306.736 26.0375 306.869 26.048 307.01 26.0686C307.151 26.0894 307.281 26.1283 307.401 26.1851C307.521 26.2422 307.618 26.3197 307.691 26.4181C307.764 26.5166 307.801 26.6382 307.801 26.7831C307.801 27.011 307.743 27.2726 307.629 27.5681C307.514 27.8637 307.399 28.1158 307.284 28.3246C307.106 28.1784 306.929 28.0662 306.751 27.9878C306.574 27.9095 306.365 27.8703 306.125 27.8703C305.801 27.8703 305.529 27.9646 305.31 28.153C305.091 28.3415 304.981 28.5667 304.981 28.8285V33.8996H302.851V26.2567C302.903 26.2465 302.966 26.236 303.039 26.2255C303.101 26.2152 303.174 26.2073 303.258 26.2019C303.342 26.1968 303.441 26.1942 303.556 26.1942C303.89 26.1942 304.18 26.2589 304.425 26.3883C304.67 26.5174 304.825 26.7167 304.887 26.9856ZM310.944 26.9856C311.007 26.8925 311.09 26.7889 311.195 26.6748C311.299 26.5608 311.427 26.4572 311.579 26.364C311.73 26.2708 311.897 26.1929 312.08 26.1308C312.263 26.0686 312.458 26.0375 312.667 26.0375C312.793 26.0375 312.926 26.048 313.067 26.0686C313.208 26.0894 313.338 26.1283 313.458 26.1851C313.578 26.2422 313.675 26.3197 313.748 26.4181C313.821 26.5166 313.858 26.6382 313.858 26.7831C313.858 27.011 313.8 27.2726 313.686 27.5681C313.57 27.8637 313.456 28.1158 313.341 28.3246C313.163 28.1784 312.986 28.0662 312.808 27.9878C312.631 27.9095 312.422 27.8703 312.182 27.8703C311.858 27.8703 311.586 27.9646 311.367 28.153C311.148 28.3415 311.038 28.5667 311.038 28.8285V33.8996H308.908V26.2567C308.96 26.2465 309.023 26.236 309.096 26.2255C309.159 26.2152 309.232 26.2073 309.315 26.2019C309.399 26.1968 309.498 26.1942 309.613 26.1942C309.947 26.1942 310.237 26.2589 310.482 26.3883C310.727 26.5174 310.882 26.7167 310.944 26.9856ZM321.111 31.8491C321.111 32.6741 321.231 33.2746 321.471 33.6506C321.283 33.7235 321.108 33.7758 320.946 33.8072C320.784 33.8385 320.615 33.8541 320.437 33.8541C320.061 33.8541 319.777 33.781 319.584 33.6348C319.39 33.4888 319.268 33.2799 319.215 33.0082C318.986 33.2487 318.683 33.4522 318.307 33.6194C317.931 33.7861 317.471 33.8699 316.928 33.8699C316.646 33.8699 316.365 33.8308 316.082 33.753C315.801 33.6745 315.544 33.5472 315.315 33.3705C315.085 33.1934 314.897 32.9565 314.751 32.6598C314.605 32.3631 314.532 32.0014 314.532 31.5747C314.532 31.0438 314.659 30.6116 314.916 30.2786C315.171 29.9454 315.492 29.6826 315.879 29.4899C316.265 29.2975 316.683 29.165 317.132 29.0919C317.581 29.019 317.994 28.9723 318.369 28.9512C318.495 28.9409 318.618 28.9355 318.738 28.9355H319.075V28.6504C319.075 28.249 318.967 27.9638 318.753 27.795C318.539 27.6261 318.192 27.5414 317.712 27.5414C317.263 27.5414 316.863 27.6145 316.513 27.7607C316.163 27.907 315.821 28.074 315.487 28.262C315.341 28.0845 315.223 27.8887 315.135 27.6745C315.046 27.4606 315.002 27.3013 315.002 27.1968C315.002 27.0506 315.082 26.9097 315.244 26.7738C315.406 26.6382 315.628 26.5153 315.91 26.4057C316.192 26.296 316.516 26.2074 316.881 26.1394C317.247 26.0716 317.633 26.0376 318.041 26.0376C318.604 26.0376 319.082 26.0951 319.474 26.2099C319.866 26.3249 320.184 26.5024 320.429 26.7425C320.675 26.9829 320.85 27.2829 320.954 27.6432C321.058 28.0035 321.111 28.424 321.111 28.9042V31.8491ZM319.106 30.032H318.886C318.813 30.032 318.74 30.0374 318.667 30.0477C318.406 30.0688 318.147 30.1 317.892 30.1416C317.636 30.1835 317.409 30.2566 317.21 30.361C317.012 30.4655 316.85 30.6013 316.725 30.7682C316.599 30.9354 316.537 31.1496 316.537 31.4106C316.537 31.703 316.62 31.9509 316.787 32.1546C316.954 32.3583 317.236 32.4601 317.633 32.4601C317.832 32.4601 318.02 32.4341 318.197 32.3816C318.375 32.3297 318.531 32.2617 318.667 32.1782C318.803 32.0946 318.91 32.0033 318.988 31.9039C319.067 31.8048 319.106 31.7135 319.106 31.6299V30.032H319.106Z" fill="#050038"/>
</g>
<defs>
<clipPath id="clip0_3164_6601">
<rect width="16" height="15" fill="white" transform="translate(14 14)"/>
</clipPath>
<clipPath id="clip1_3164_6601">
<rect width="16" height="15" fill="white" transform="translate(36 14)"/>
</clipPath>
<clipPath id="clip2_3164_6601">
<rect width="16" height="15" fill="white" transform="translate(58 14)"/>
</clipPath>
<clipPath id="clip3_3164_6601">
<rect width="16" height="15" fill="white" transform="translate(80 14)"/>
</clipPath>
<clipPath id="clip4_3164_6601">
<rect width="16" height="15" fill="white" transform="translate(102 14)"/>
</clipPath>
<clipPath id="clip5_3164_6601">
<rect width="19" height="32" fill="white" transform="translate(164.969 14)"/>
</clipPath>
<clipPath id="clip6_3164_6601">
<rect width="50" height="32" fill="white" transform="translate(198.297 14)"/>
</clipPath>
<clipPath id="clip7_3164_6601">
<rect width="59" height="32" fill="white" transform="translate(262.625 14)"/>
</clipPath>
</defs>
</svg>
